<?xml version="1.0" encoding="utf-8" ?>
<svg baseProfile="full" height="720px" version="1.1" width="720px" xmlns="http://www.w3.org/2000/svg" xmlns:ev="http://www.w3.org/2001/xml-events" xmlns:xlink="http://www.w3.org/1999/xlink"><defs><clipPath id="border_clip"><rect height="720" width="720" x="0" y="0" /></clipPath></defs><polyline clip-path="url(#border_clip)" fill="none" points="10.5,10.5 710.5,10.5 710.5,710.5 10.500000000000057,710.5000000000001 10.499999999999943,10.500000000000114" stroke="black" stroke-linecap="round" stroke-width="1" /><polyline clip-path="url(#border_clip)" fill="none" points="80.5,640.5 10.5,640.5 10.5,710.5 80.5,710.5 80.5,780.5" stroke="black" stroke-linecap="round" stroke-width="1" /><polyline clip-path="url(#border_clip)" fill="none" points="80.5,500.5 80.5,570.5 150.5,570.5 150.5,500.5 220.5,500.5" stroke="black" stroke-linecap="round" stroke-width="1" /><polyline clip-path="url(#border_clip)" fill="none" points="80.5,360.5 150.5,360.5 150.5,290.5 80.5,290.5 80.5,220.5" stroke="black" stroke-linecap="round" stroke-width="1" /><polyline clip-path="url(#border_clip)" fill="none" points="80.5,220.5 80.5,150.5 10.5,150.5 10.5,220.5 -59.5,220.5" stroke="black" stroke-linecap="round" stroke-width="1" /><polyline clip-path="url(#border_clip)" fill="none" points="80.5,80.5 10.5,80.5 10.5,150.5 80.5,150.50000000000003 80.5,220.50000000000003" stroke="black" stroke-linecap="round" stroke-width="1" /><polyline clip-path="url(#border_clip)" fill="none" points="220.5,640.5 220.5,710.5 290.5,710.5 290.5,640.5 360.5,640.5" stroke="black" stroke-linecap="round" stroke-width="1" /><polyline clip-path="url(#border_clip)" fill="none" points="220.5,500.5 290.5,500.5 290.5,430.5 220.50000000000003,430.5 220.50000000000006,360.5" stroke="black" stroke-linecap="round" stroke-width="1" /><polyline clip-path="url(#border_clip)" fill="none" points="220.5,360.5 220.50000000000003,290.5 150.50000000000003,290.5 150.5,360.5 80.5,360.49999999999994" stroke="black" stroke-linecap="round" stroke-width="1" /><polyline clip-path="url(#border_clip)" fill="none" points="220.5,220.5 150.5,220.49999999999997 150.49999999999997,290.5 220.49999999999997,290.5 220.49999999999994,360.5" stroke="black" stroke-linecap="round" stroke-width="1" /><polyline clip-path="url(#border_clip)" fill="none" points="220.5,80.5 220.49999999999997,150.5 290.5,150.50000000000003 290.5,80.5 360.5,80.50000000000006" stroke="black" stroke-linecap="round" stroke-width="1" /><polyline clip-path="url(#border_clip)" fill="none" points="360.5,640.5 430.5,640.5 430.50000000000006,570.5 360.50000000000006,570.5 360.50000000000006,500.5" stroke="black" stroke-linecap="round" stroke-width="1" /><polyline clip-path="url(#border_clip)" fill="none" points="360.5,500.5 360.50000000000006,430.5 290.50000000000006,430.49999999999994 290.5,500.49999999999994 220.5,500.4999999999999" stroke="black" stroke-linecap="round" stroke-width="1" /><polyline clip-path="url(#border_clip)" fill="none" points="360.5,360.5 290.5,360.49999999999994 290.49999999999994,430.49999999999994 360.49999999999994,430.5 360.4999999999999,500.5" stroke="black" stroke-linecap="round" stroke-width="1" /><polyline clip-path="url(#border_clip)" fill="none" points="360.5,220.5 360.49999999999994,290.5 430.49999999999994,290.50000000000006 430.5,220.50000000000006 500.5,220.5000000000001" stroke="black" stroke-linecap="round" stroke-width="1" /><polyline clip-path="url(#border_clip)" fill="none" points="360.5,80.5 430.5,80.50000000000006 430.50000000000006,10.500000000000057 360.50000000000006,10.5 360.5000000000001,-59.5" stroke="black" stroke-linecap="round" stroke-width="1" /><polyline clip-path="url(#border_clip)" fill="none" points="500.5,640.5 500.50000000000006,570.5 430.50000000000006,570.5 430.5,640.5 360.5,640.4999999999999" stroke="black" stroke-linecap="round" stroke-width="1" /><polyline clip-path="url(#border_clip)" fill="none" points="500.5,500.5 430.5,500.49999999999994 430.49999999999994,570.5 500.49999999999994,570.5 500.4999999999999,640.5" stroke="black" stroke-linecap="round" stroke-width="1" /><polyline clip-path="url(#border_clip)" fill="none" points="500.5,360.5 500.49999999999994,430.5 570.5,430.50000000000006 570.5,360.50000000000006 640.5,360.5000000000001" stroke="black" stroke-linecap="round" stroke-width="1" /><polyline clip-path="url(#border_clip)" fill="none" points="500.5,220.5 570.5,220.50000000000006 570.5000000000001,150.50000000000006 500.5000000000001,150.49999999999997 500.50000000000017,80.5" stroke="black" stroke-linecap="round" stroke-width="1" /><polyline clip-path="url(#border_clip)" fill="none" points="500.5,80.5 500.5000000000001,10.5 430.5000000000001,10.499999999999943 430.5,80.49999999999994 360.5,80.49999999999989" stroke="black" stroke-linecap="round" stroke-width="1" /><polyline clip-path="url(#border_clip)" fill="none" points="640.5,640.5 570.5,640.5 570.4999999999999,710.5 640.4999999999999,710.5 640.4999999999998,780.5" stroke="black" stroke-linecap="round" stroke-width="1" /><polyline clip-path="url(#border_clip)" fill="none" points="640.5,500.5 640.5,570.5 710.5,570.5000000000001 710.5,500.5000000000001 780.5,500.50000000000017" stroke="black" stroke-linecap="round" stroke-width="1" /><polyline clip-path="url(#border_clip)" fill="none" points="640.5,360.5 710.5,360.5000000000001 710.5000000000001,290.5000000000001 640.5000000000001,290.5 640.5000000000002,220.5" stroke="black" stroke-linecap="round" stroke-width="1" /><polyline clip-path="url(#border_clip)" fill="none" points="640.5,220.5 640.5000000000001,150.5 570.5000000000001,150.49999999999991 570.5,220.49999999999991 500.5,220.49999999999983" stroke="black" stroke-linecap="round" stroke-width="1" /><polyline clip-path="url(#border_clip)" fill="none" points="640.5,80.5 570.5,80.49999999999989 570.4999999999999,150.4999999999999 640.4999999999999,150.5 640.4999999999998,220.5" stroke="black" stroke-linecap="round" stroke-width="1" /></svg>